<svg width="20" height="18" viewBox="0 0 20 18" fill="none" xmlns="http://www.w3.org/2000/svg">
<path d="M17.8125 0.5625H2.1875C1.77324 0.562971 1.37609 0.727742 1.08317 1.02067C0.790242 1.31359 0.625471 1.71074 0.625 2.125V12.125C0.625471 12.5393 0.790242 12.9364 1.08317 13.2293C1.37609 13.5223 1.77324 13.687 2.1875 13.6875H8.125V15.5625H6.875C6.46074 15.563 6.06359 15.7277 5.77067 16.0207C5.47774 16.3136 5.31297 16.7107 5.3125 17.125C5.3125 17.2079 5.34543 17.2874 5.40403 17.346C5.46264 17.4046 5.54212 17.4375 5.625 17.4375H14.375C14.4579 17.4375 14.5374 17.4046 14.596 17.346C14.6546 17.2874 14.6875 17.2079 14.6875 17.125C14.687 16.7107 14.5223 16.3136 14.2293 16.0207C13.9364 15.7277 13.5393 15.563 13.125 15.5625H11.875V13.6875H17.8125C18.2268 13.687 18.6239 13.5223 18.9168 13.2293C19.2098 12.9364 19.3745 12.5393 19.375 12.125V2.125C19.3745 1.71074 19.2098 1.31359 18.9168 1.02067C18.6239 0.727742 18.2268 0.562971 17.8125 0.5625ZM2.1875 1.1875H17.8125C18.0611 1.18778 18.2993 1.28665 18.4751 1.4624C18.6509 1.63816 18.7497 1.87645 18.75 2.125V11.8125H1.25V2.125C1.25028 1.87645 1.34915 1.63816 1.5249 1.4624C1.70066 1.28665 1.93895 1.18778 2.1875 1.1875ZM14.0089 16.8125H5.99106C6.05589 16.6298 6.17565 16.4717 6.33391 16.3598C6.49217 16.2479 6.68118 16.1877 6.875 16.1875H13.125C13.3188 16.1877 13.5078 16.2479 13.6661 16.3598C13.8243 16.4717 13.9441 16.6298 14.0089 16.8125ZM11.25 15.5625H8.75V13.6875H11.25V15.5625ZM17.8125 13.0625H2.1875C1.99371 13.0623 1.80474 13.002 1.64651 12.8902C1.48829 12.7783 1.36856 12.6201 1.30376 12.4375H18.6962C18.6314 12.6201 18.5117 12.7782 18.3535 12.8901C18.1953 13.002 18.0063 13.0623 17.8125 13.0625Z" fill="white"/>
<path d="M2.8125 6.8125H3.125C3.12517 7.03179 3.183 7.24719 3.2927 7.43707C3.4024 7.62695 3.56011 7.78465 3.75 7.89433V9C3.75 9.03359 3.75541 9.06696 3.76602 9.09882L4.39102 10.9738C4.41177 11.036 4.45156 11.0902 4.50477 11.1285C4.55798 11.1669 4.62191 11.1875 4.6875 11.1875H5.3125C5.39538 11.1875 5.47486 11.1546 5.53347 11.096C5.59207 11.0374 5.625 10.9579 5.625 10.875V9.625H5.9375V10.875C5.9375 10.9579 5.97043 11.0374 6.02903 11.096C6.08764 11.1546 6.16712 11.1875 6.25 11.1875H6.875C6.94059 11.1875 7.00452 11.1669 7.05773 11.1285C7.11094 11.0902 7.15073 11.036 7.17148 10.9738L7.51692 9.9375H7.55376C7.61856 10.1201 7.73829 10.2783 7.89651 10.3902C8.05473 10.5021 8.24371 10.5623 8.4375 10.5625H9.0625C9.15028 10.5624 9.23759 10.5498 9.32186 10.5253L9.37813 10.9192C9.38877 10.9937 9.42591 11.0618 9.48274 11.1111C9.53957 11.1604 9.61228 11.1875 9.6875 11.1875H10.625C10.7012 11.1875 10.7747 11.1597 10.8318 11.1093C10.8889 11.0589 10.9256 10.9893 10.9351 10.9138L11.2476 8.41376C11.2492 8.4009 11.25 8.38796 11.25 8.375V7.4375C11.2494 6.94039 11.0517 6.4638 10.7002 6.11229C10.3487 5.76078 9.87211 5.56306 9.375 5.5625H6.875V5.25C6.875 5.16712 6.84207 5.08764 6.78347 5.02903C6.72486 4.97043 6.64538 4.9375 6.5625 4.9375H5.9375C5.79768 4.93735 5.65962 4.96866 5.53355 5.02912C5.50456 5.00003 5.47011 4.97696 5.43217 4.96124C5.39424 4.94552 5.35357 4.93745 5.3125 4.9375H3.4375C3.39643 4.93745 3.35576 4.94552 3.31783 4.96124C3.27989 4.97696 3.24544 5.00003 3.21645 5.02912C3.09038 4.96866 2.95232 4.93735 2.8125 4.9375H2.1875C2.10462 4.9375 2.02514 4.97043 1.96653 5.02903C1.90793 5.08764 1.875 5.16712 1.875 5.25V5.875C1.87528 6.12356 1.97414 6.36185 2.1499 6.5376C2.32565 6.71336 2.56395 6.81222 2.8125 6.8125ZM9.0625 9.9375H8.4375C8.4022 9.93743 8.36716 9.93133 8.33391 9.91948C8.50019 9.89115 8.65903 9.82951 8.8009 9.73826C8.94276 9.64702 9.06473 9.52805 9.15947 9.38849L9.23088 9.88836C9.18064 9.92059 9.12218 9.93765 9.0625 9.9375ZM10 6.35567V6.68307C9.99999 6.88315 9.92051 7.07504 9.77902 7.21653C9.63754 7.35801 9.44565 7.43749 9.24557 7.4375H9.0625V8.0625H9.24557C9.54387 8.06241 9.83412 7.96569 10.0729 7.78683C10.3116 7.60797 10.486 7.3566 10.5699 7.07034C10.6065 7.18928 10.6251 7.31305 10.625 7.4375V8.35555L10.3491 10.5625H9.95854L9.68437 8.64331C9.67373 8.56884 9.63659 8.50071 9.57976 8.45142C9.52293 8.40214 9.45023 8.375 9.375 8.375H9.0625C8.97962 8.375 8.90014 8.40793 8.84153 8.46653C8.78293 8.52514 8.75 8.60462 8.75 8.6875C8.74981 8.8532 8.6839 9.01207 8.56673 9.12923C8.44956 9.2464 8.2907 9.31231 8.125 9.3125H7.72525L7.79648 9.09882C7.80709 9.06696 7.8125 9.03359 7.8125 9V8.6875H7.1875V8.94929L6.64978 10.5625H6.5625V9.3125C6.5625 9.22962 6.52957 9.15014 6.47097 9.09153C6.41236 9.03293 6.33288 9 6.25 9H5.3125C5.22962 9 5.15014 9.03293 5.09153 9.09153C5.03293 9.15014 5 9.22962 5 9.3125V10.5625H4.91272L4.375 8.94929V8.0625C4.6744 8.06211 4.96374 7.95443 5.19056 7.75899C5.41737 7.56355 5.56663 7.29329 5.61126 6.99724C5.72857 7.13502 5.87435 7.24573 6.03858 7.32174C6.2028 7.39774 6.38154 7.43724 6.5625 7.4375H6.57364C6.61315 7.71119 6.75486 7.95975 6.97025 8.13317C7.18564 8.30659 7.45872 8.39199 7.73453 8.37219C8.01035 8.35239 8.26843 8.22885 8.45683 8.02645C8.64524 7.82404 8.74999 7.55778 8.75 7.28125V6.1875H9.375C9.59454 6.18733 9.81019 6.24536 10 6.35567ZM6.82124 6.1875H8.125V7.28125C8.125 7.40557 8.07561 7.5248 7.98771 7.61271C7.8998 7.70062 7.78057 7.75 7.65625 7.75C7.53193 7.75 7.4127 7.70062 7.32479 7.61271C7.23689 7.5248 7.1875 7.40557 7.1875 7.28125V7.125C7.1875 7.04212 7.15457 6.96264 7.09597 6.90403C7.03736 6.84543 6.95788 6.8125 6.875 6.8125H6.5625C6.46539 6.81251 6.36963 6.78984 6.28283 6.74631C6.40711 6.69674 6.5194 6.62127 6.61224 6.52492C6.70508 6.42856 6.77633 6.31354 6.82124 6.1875ZM5.9375 5.5625H6.25V5.875C6.24991 5.95785 6.21695 6.03728 6.15837 6.09587C6.09978 6.15445 6.02035 6.18741 5.9375 6.1875H5.625V5.875C5.62509 5.79215 5.65805 5.71272 5.71663 5.65413C5.77522 5.59555 5.85465 5.5626 5.9375 5.5625ZM3.75 5.5625H5V6.8125C5 6.97826 4.93415 7.13723 4.81694 7.25444C4.69973 7.37165 4.54076 7.4375 4.375 7.4375C4.20924 7.4375 4.05027 7.37165 3.93306 7.25444C3.81585 7.13723 3.75 6.97826 3.75 6.8125V5.5625ZM2.5 5.5625H2.8125C2.89535 5.5626 2.97478 5.59555 3.03337 5.65413C3.09195 5.71272 3.12491 5.79215 3.125 5.875V6.1875H2.8125C2.72965 6.18741 2.65022 6.15445 2.59163 6.09587C2.53305 6.03728 2.50009 5.95785 2.5 5.875V5.5625Z" fill="white"/>
<path d="M6.3795 2.4375H9.68757V1.8125H6.25007C6.16718 1.8125 6.08769 1.84543 6.02908 1.90403L3.84158 4.09153L4.28355 4.53347L6.3795 2.4375Z" fill="white"/>
<path d="M12.1875 1.8125H10.9375V2.4375H12.1875V1.8125Z" fill="white"/>
<path d="M13.4375 1.8125H12.8125V2.4375H13.4375V1.8125Z" fill="white"/>
<path d="M16.5625 1.8125H14.0625V2.4375H16.5625V1.8125Z" fill="white"/>
<path d="M11.5625 3.0625H9.6875V3.6875H11.5625V3.0625Z" fill="white"/>
<path d="M14.6875 3.0625H12.1875V3.6875H14.6875V3.0625Z" fill="white"/>
<path d="M16.5625 3.0625H15.3125V3.6875H16.5625V3.0625Z" fill="white"/>
<path d="M16.5625 7.75H14.6875V5.875C14.6875 5.79212 14.6545 5.71264 14.5959 5.65403C14.5373 5.59543 14.4579 5.5625 14.375 5.5625C13.8805 5.5625 13.3972 5.70912 12.986 5.98383C12.5749 6.25853 12.2545 6.64898 12.0653 7.10579C11.8761 7.56261 11.8265 8.06527 11.923 8.55023C12.0195 9.03518 12.2576 9.48064 12.6072 9.83027C12.9568 10.1799 13.4023 10.418 13.8872 10.5145C14.3722 10.6109 14.8749 10.5614 15.3317 10.3722C15.7885 10.183 16.1789 9.86255 16.4536 9.45143C16.7283 9.0403 16.875 8.55695 16.875 8.0625C16.875 7.97962 16.842 7.90014 16.7834 7.84153C16.7248 7.78293 16.6454 7.75 16.5625 7.75ZM14.375 9.9375C13.9048 9.93747 13.4518 9.76084 13.1058 9.44258C12.7597 9.12433 12.5459 8.6877 12.5065 8.2192C12.4672 7.7507 12.6053 7.28452 12.8935 6.91305C13.1817 6.54158 13.5989 6.29191 14.0625 6.21354V8.0625C14.0625 8.14538 14.0954 8.22486 14.154 8.28347C14.2126 8.34207 14.2921 8.375 14.375 8.375H16.2239C16.1495 8.81167 15.9231 9.20798 15.5848 9.49389C15.2464 9.77981 14.8179 9.93693 14.375 9.9375Z" fill="white"/>
<path d="M15.3125 4.625V6.8125C15.3125 6.89538 15.3454 6.97486 15.404 7.03347C15.4626 7.09207 15.5421 7.125 15.625 7.125H17.8125C17.8954 7.125 17.9749 7.09207 18.0335 7.03347C18.0921 6.97486 18.125 6.89538 18.125 6.8125C18.125 6.48418 18.0604 6.15907 17.9348 5.85574C17.8092 5.55241 17.625 5.27679 17.3929 5.04464C17.1607 4.81248 16.8851 4.62833 16.5818 4.50271C16.2784 4.37709 15.9533 4.31246 15.625 4.3125C15.5421 4.3125 15.4626 4.34543 15.404 4.40403C15.3454 4.46264 15.3125 4.54212 15.3125 4.625ZM15.9375 4.96329C16.3214 5.02837 16.6756 5.21125 16.9509 5.48659C17.2263 5.76193 17.4091 6.11609 17.4742 6.5H15.9375V4.96329Z" fill="white"/>
<path d="M9.0625 3.0625H7.8125V3.6875H9.0625V3.0625Z" fill="white"/>
</svg>
